<svg xmlns="http://www.w3.org/2000/svg" width="960" height="416" viewBox="0 0 960 416"><rect width="100%" height="100%" fill="white"/><text x="8" y="24" font-size="16">Fault localisation by frozen condition</text><text x="8" y="62" font-size="12">current_run / source_present</text><rect x="390" y="48" width="316.667" height="18" fill="#3569a8"/><text x="714.6669999999999" y="62" font-size="12">0.633</text><text x="8" y="90" font-size="12">current_run / source_absent</text><rect x="390" y="76" width="166.667" height="18" fill="#3569a8"/><text x="564.667" y="90" font-size="12">0.333</text><text x="8" y="118" font-size="12">history_full / source_present</text><rect x="390" y="104" width="400.0" height="18" fill="#3569a8"/><text x="798.0" y="118" font-size="12">0.800</text><text x="8" y="146" font-size="12">history_full / source_absent</text><rect x="390" y="132" width="100.0" height="18" fill="#3569a8"/><text x="498.0" y="146" font-size="12">0.200</text><text x="8" y="174" font-size="12">etiq_full / source_present</text><rect x="390" y="160" width="300.0" height="18" fill="#3569a8"/><text x="698.0" y="174" font-size="12">0.600</text><text x="8" y="202" font-size="12">etiq_full / source_absent</text><rect x="390" y="188" width="333.333" height="18" fill="#3569a8"/><text x="731.3330000000001" y="202" font-size="12">0.667</text><text x="8" y="230" font-size="12">etiq_selected_fixed / source_present</text><rect x="390" y="216" width="400.0" height="18" fill="#3569a8"/><text x="798.0" y="230" font-size="12">0.800</text><text x="8" y="258" font-size="12">etiq_selected_fixed / source_absent</text><rect x="390" y="244" width="400.0" height="18" fill="#3569a8"/><text x="798.0" y="258" font-size="12">0.800</text><text x="8" y="286" font-size="12">etiq_selected_adaptive / source_present</text><rect x="390" y="272" width="366.667" height="18" fill="#3569a8"/><text x="764.6669999999999" y="286" font-size="12">0.733</text><text x="8" y="314" font-size="12">etiq_selected_adaptive / source_absent</text><rect x="390" y="300" width="366.667" height="18" fill="#3569a8"/><text x="764.6669999999999" y="314" font-size="12">0.733</text><text x="8" y="342" font-size="12">etiq_random_matched / source_present</text><rect x="390" y="328" width="333.333" height="18" fill="#3569a8"/><text x="731.3330000000001" y="342" font-size="12">0.667</text><text x="8" y="370" font-size="12">etiq_random_matched / source_absent</text><rect x="390" y="356" width="333.333" height="18" fill="#3569a8"/><text x="731.3330000000001" y="370" font-size="12">0.667</text></svg>
